<svg xmlns="http://www.w3.org/2000/svg" viewBox="0 0 800 380" role="img" aria-label="Non-invasive ICP estimators">
  <style>
    .bg { fill: #081224; }
    .grid { stroke: #1f2a44; stroke-width: 0.5; }
    .axis { stroke: #475569; stroke-width: 1; }
    .title { fill: #f1f5f9; font: 600 14px sans-serif; }
    .sub { fill: #94a3b8; font: 11px sans-serif; }
    .label { fill: #e2e8f0; font: 12px sans-serif; }
    .small { fill: #94a3b8; font: 10px sans-serif; }
    .placeholder { fill: #64748b; font: italic 10px sans-serif; }
    .curve { stroke: #5eead4; stroke-width: 2; fill: none; }
    .curveFill { fill: rgba(94, 234, 212, 0.15); stroke: #5eead4; stroke-width: 1.5; }
    .accent { fill: #fbbf24; stroke: #fbbf24; }
    .danger { fill: #f87171; stroke: #f87171; }
    .ok { fill: #22c55e; stroke: #22c55e; }
    .purple { fill: #c084fc; stroke: #c084fc; }
    .box { fill: #0f1c34; stroke: #334155; stroke-width: 1; }
    .arrow { stroke: #94a3b8; stroke-width: 1; fill: none; marker-end: url(#arrow); }
    .dash { stroke-dasharray: 4 3; }
  </style>
  <defs>
    <marker id="arrow" viewBox="0 0 10 10" refX="9" refY="5" markerWidth="6" markerHeight="6" orient="auto-start-reverse">
      <path d="M0 0 L10 5 L0 10 Z" fill="#94a3b8"/>
    </marker>
  </defs>
  <rect class="bg" width="800" height="380"/>
  <text class="title" x="20" y="28">Non-invasive ICP estimators, placeholder schematic</text>
  <text class="sub" x="20" y="48">TCD-PI, ONSD, B4C, tympanic. Sensitivity / specificity table.</text>
  <rect class="box" x="64" y="64" width="167" height="107"/><text class="small" x="74" y="82">Panel 1</text><path class="curve" d="M74 127.5 L74 117.33643547888937 L80 112.08187213527829 L86 109.61612891552355 L92 110.38520771893798 L98 114.24999811249029 L104 120.5114395280886 L110 128.0369668464539 L116 135.46536797930733 L122 141.45299895449196 L128 144.91682129260664 L134 145.23030124540685 L140 142.33673677951572 L146 136.75951380033985 L152 129.50743647762212 L158 121.8922554567592 L164 115.29139932467989 L170 110.89882629585355 L176 109.50906189022535 L182 111.37348571599688 L188 116.15486210290192 L194 122.98833905305024 L200 130.63788206201363 L206 137.71984717062412 L212 142.9532535111246"/><rect class="box" x="239" y="64" width="167" height="107"/><text class="small" x="249" y="82">Panel 2</text><path class="curve" d="M249 127.5 L249 110.72329645258992 L255 109.53003330590266 L261 111.5871650956976 L267 116.52259927071685 L273 123.44361796871233 L279 131.0983521954776 L285 138.10221900801986 L291 143.18836390344458 L297 145.43680857039885 L303 144.4408559189638 L309 140.38065316422933 L315 133.990606924735 L321 126.42654426985217 L327 119.05664753242519 L333 113.21397845071525 L339 109.95535489879049 L345 109.8701944127756 L351 112.9739007614835 L357 118.70507772354658 L363 126.0270740410806 L369 133.61549217008397 L375 140.09774437668375 L381 144.3013254410315 L387 145.46589457678974"/><rect class="box" x="414" y="64" width="167" height="107"/><text class="small" x="424" y="82">Panel 3</text><path class="curve" d="M424 127.5 L424 109.97074264419248 L430 113.25562084196318 L436 119.11701232307924 L442 126.4947127190363 L448 134.05424877130696 L454 140.42825691574356 L460 144.46381104232842 L466 145.43096295904513 L472 143.1547749074427 L478 138.04696218134183 L484 131.03142235406816 L490 123.37712133521065 L496 116.4685637094204 L502 111.55536452092787 L508 109.52621978325712 L514 110.74815976936245 L520 115.00016083400659 L526 121.51312401525459 L532 129.1089891137641 L538 136.41382139305574 L544 142.1063279282929 L550 145.15685214119685 L556 145.01361735771863 L562 141.70253178474982"/><rect class="box" x="589" y="64" width="167" height="107"/><text class="small" x="599" y="82">Panel 4</text><path class="curve" d="M599 127.5 L599 115.34166275007928 L605 121.95717983128749 L611 129.5752783260791 L617 136.81800193689304 L623 142.37529191116292 L629 145.24194954705342 L635 144.89945582764355 L641 141.40976077600777 L647 135.40407797861477 L653 127.96871111576998 L659 120.44856411597192 L665 114.20387587926118 L671 110.36418122170292 L677 109.62400141231348 L683 112.11721965441095 L689 117.39286438596567 L695 124.4966806985499 L701 132.1437352940008 L707 138.95083431563634 L713 143.6867144801848 L719 145.4947531144561 L725 144.04791346196416 L731 139.6078988614195 L737 132.97781603089177"/><rect class="box" x="64" y="179" width="167" height="107"/><text class="small" x="74" y="197">Panel 5</text><path class="curve" d="M74 242.5 L74 239.9598398549224 L80 247.5950053734806 L86 254.30858990364717 L92 258.8862449975941 L98 260.4999676216143 L104 258.85786876248415 L110 254.25697010687554 L116 247.52947896758067 L122 239.89225921010544 L128 232.7267257725562 L134 227.32897530325087 L140 224.67534911057857 L146 225.24583323384633 L152 228.93723890608652 L158 235.08186726564838 L164 242.56828225666848 L170 250.04234640112858 L176 256.1521562334493 L182 259.7925736484851 L188 260.3051225046857 L194 257.597093325442 L200 252.15831252400784 L206 244.9725429463891 L212 237.33954153968648"/><rect class="box" x="239" y="179" width="167" height="107"/><text class="small" x="249" y="197">Panel 6</text><path class="curve" d="M249 242.5 L249 250.46536797930733 L255 256.452998954492 L261 259.91682129260664 L267 260.23030124540685 L273 257.3367367795157 L279 251.75951380033987 L285 244.50743647762212 L291 236.8922554567592 L297 230.2913993246799 L303 225.89882629585355 L309 224.50906189022535 L315 226.37348571599688 L321 231.15486210290194 L327 237.98833905305025 L333 245.63788206201363 L339 252.71984717062412 L345 257.95325351112456 L351 260.3914862255529 L357 259.59351949545027 L363 255.70368898170904 L369 249.4255844917489 L375 241.89478515001954 L381 234.47345664467778 L387 228.50396365599082"/><rect class="box" x="414" y="179" width="167" height="107"/><text class="small" x="424" y="197">Panel 7</text><path class="curve" d="M424 242.5 L424 258.1883639034446 L430 260.43680857039885 L436 259.4408559189638 L442 255.38065316422933 L448 248.990606924735 L454 241.42654426985217 L460 234.0566475324252 L466 228.21397845071525 L472 224.9553548987905 L478 224.87019441277562 L484 227.9739007614835 L490 233.70507772354657 L496 241.02707404108062 L502 248.615492170084 L508 255.09774437668375 L514 259.3013254410315 L520 260.46589457678976 L526 258.3808053377802 L532 253.423207199011 L538 246.48982702490426 L544 238.83476974477097 L550 231.84267673526998 L556 226.77827286208276 L562 224.55760393575144"/><rect class="box" x="589" y="179" width="167" height="107"/><text class="small" x="599" y="197">Panel 8</text><path class="curve" d="M599 242.5 L599 260.43096295904513 L605 258.1547749074427 L611 253.04696218134183 L617 246.03142235406816 L623 238.37712133521063 L629 231.4685637094204 L635 226.55536452092787 L641 224.52621978325712 L647 225.74815976936245 L653 230.00016083400658 L659 236.5131240152546 L665 244.1089891137641 L671 251.41382139305574 L677 257.1063279282929 L683 260.15685214119685 L689 260.01361735771866 L695 256.70253178474985 L701 250.82250225188258 L707 243.43710436531285 L713 235.88220370025616 L719 229.52432537528114 L725 225.51347795000612 L731 224.57514068569202 L737 226.87903936673007"/>
  <text class="placeholder" x="20" y="370">PLACEHOLDER, TODO: polish (onsd/niicp-stack.svg).</text>
</svg>
